<?xml version="1.0" encoding="utf-8"?>
<!-- Generator: Adobe Illustrator 19.1.0, SVG Export Plug-In . SVG Version: 6.00 Build 0)  -->
<svg version="1.1" id="Layer_1" xmlns="http://www.w3.org/2000/svg" xmlns:xlink="http://www.w3.org/1999/xlink" x="0px" y="0px"
	 viewBox="0 0 1024 343" style="enable-background:new 0 0 1024 343;" xml:space="preserve">
<style type="text/css">
	.st1{fill:#3D454A;}
</style>
<g>
	<g>
		<path class="st1" d="M173.8,119c-16.2,0-25.5,7.2-30,12.3c-0.5-4.3-3.4-9.9-14.5-9.9h-24.1v25.2h9.9c1.7,0,2.2,0.5,2.2,2.2v115.3
			H146v-43.3c0-1.2,0-2.3-0.1-3.2c4.5,4.1,13.1,9.8,26.5,9.8c28.1,0,47.7-22.3,47.7-54.2C220.2,140.8,201.5,119,173.8,119z
			 M167.9,202.3c-15.5,0-22.5-14.8-22.5-28.6c0-21.6,11.8-29.3,22.9-29.3c13.6,0,22.7,11.7,22.7,29.1
			C191,193.4,179.4,202.3,167.9,202.3z"/>
		<path class="st1" d="M258.8,197.8v-61.1c0-10.3-5-15.3-15.2-15.3h-25.7v25.2h9.9c1.7,0,2.2,0.5,2.2,2.2v60.9
			c0,10.5,4.8,15.3,15.1,15.3h25.7v-25H261C259.4,200,258.8,199.3,258.8,197.8z"/>
		<path class="st1" d="M333.9,119c-16.2,0-25.5,7.2-30,12.3c-0.5-4.3-3.4-9.9-14.5-9.9h-24.1v25.2h9.9c1.7,0,2.2,0.5,2.2,2.2v115.3
			h28.8v-43.3c0-1.2,0-2.3-0.1-3.2c4.5,4.1,13.1,9.8,26.5,9.8c28.1,0,47.7-22.3,47.7-54.2C380.3,140.8,361.6,119,333.9,119z
			 M328,202.3c-15.4,0-22.5-14.8-22.5-28.6c0-21.6,11.8-29.3,22.9-29.3c13.6,0,22.7,11.7,22.7,29.1
			C351.1,193.4,339.5,202.3,328,202.3z"/>
		<path class="st1" d="M434.4,119c-31,0-52.6,22.3-52.6,54.2c0,31.4,23.4,54.2,55.6,54.2c25.3,0,40.8-15,41.5-15.6l1.2-1.1
			l-12.5-20.8l-1.9,1.8c-0.1,0.1-11.5,10.6-26.5,10.6c-14.4,0-25-8.8-27.4-22.6h68.2l0.2-1.9c0-0.3,0.6-6.4,0.6-9.4
			C480.6,138.8,462,119,434.4,119z M412.7,158.2c3.1-10.2,10.9-15.9,21.7-15.9c8.7,0,15.3,6.6,16.5,15.9H412.7z"/>
		<path class="st1" d="M585.1,197.8V97.7c0-10.3-5-15.3-15.4-15.3h-25.7v25.2h9.9c1.7,0,2.2,0.5,2.2,2.2v18.1
			c-4.2-3.8-12.5-8.9-26.8-8.9c-27.9,0-47.4,22.3-47.4,54.2c0,32.4,18.7,54.2,46.4,54.2c15.9,0,25-7.4,29.5-12.5
			c0.6,4.5,3.5,10.1,14.2,10.1H597v-25h-9.7C585.7,200,585.1,199.3,585.1,197.8z M533.9,202.3c-13.7,0-22.5-11.4-22.5-29.1
			c0-17.2,9.2-28.7,22.9-28.7c15.5,0,22.5,14.3,22.5,28.6C556.8,194.6,544.9,202.3,533.9,202.3z"/>
		<path class="st1" d="M661,120c-12,0-23,6.9-29.5,17.9v-2.4c0-9.4-5.2-14.2-15.4-14.2h-24.7v25.2h9.9c1.7,0,2.2,0.5,2.2,2.2V225
			h28.7v-41.5c0-5.5,0.7-10.7,2.1-15.6c4.3-14.3,15.8-19.4,25.1-19.4c3.3,0,5.7,0.3,5.7,0.4l2.4,0.4v-28.6l-1.8-0.3
			C665.7,120.4,663.3,120,661,120z"/>
		<path class="st1" d="M708.5,197.8v-61.1c0-10.3-4.9-15.3-15.2-15.3h-23.2v25.2h7.4c1.7,0,2.2,0.5,2.2,2.2v60.9
			c0,10.5,4.8,15.3,15.2,15.3h25.7v-25h-9.9C709.1,200,708.5,199.3,708.5,197.8z"/>
		<path class="st1" d="M817,121.3h-15.3c-9,0-13.8,3.1-16.6,10.7l-18.7,52.3c-0.6,1.9-1.3,4.1-1.8,6.2c-0.5-2.1-1.2-4.3-1.9-6.2
			l-18.7-52.3c-2.9-7.7-7.5-10.7-16.6-10.7H711v25.2h4.2c2.2,0,3,0.8,3.5,2.2l29,76.3h32.3l29-76.3c0.5-1.4,1.3-2.2,3.5-2.2h4.4
			V121.3z"/>
		<path class="st1" d="M866.5,119c-31,0-52.6,22.3-52.6,54.2c0,31.4,23.3,54.2,55.6,54.2c25.3,0,40.8-15,41.5-15.6l1.2-1.1
			l-12.5-20.8l-1.9,1.8c-0.1,0.1-11.5,10.6-26.5,10.6c-14.4,0-25-8.8-27.5-22.6h68.2l0.2-1.9c0-0.3,0.6-6.4,0.6-9.4
			C912.7,138.8,894.1,119,866.5,119z M844.8,158.2c3.1-10.2,10.9-15.9,21.7-15.9c8.7,0,15.3,6.6,16.5,15.9H844.8z"/>
		<rect x="231.2" y="82.3" class="st1" width="25.6" height="27"/>
		<rect x="680.9" y="82.3" class="st1" width="25.6" height="27"/>
		<polygon class="st1" points="912.2,121.3 916,121.3 916,131.7 918.8,131.7 918.8,121.3 922.7,121.3 922.7,119 912.2,119 		"/>
		<polygon class="st1" points="933.9,119 931.1,127.8 931.1,127.8 928.1,119 924.1,119 924.1,131.7 926.8,131.7 926.8,122.8
			926.8,122.8 929.9,131.7 932.1,131.7 935.2,122.7 935.2,122.7 935.2,131.7 937.8,131.7 937.8,119 		"/>
	</g>
</g>
</svg>
